<svg xmlns="http://www.w3.org/2000/svg" viewBox="0 0 883 276" width="883" height="276"><rect width="883" height="276" rx="20" fill="#16130f"></rect><g transform="translate(0,38)"><rect width="200" height="200" rx="40.00" fill="#e0503f"></rect><g transform="translate(61.99,119.33) scale(0.1238)" fill="#16130f"><path d="M291 297L291 297Q256 297 226 282.5Q196 268 178 242Q160 216 160 181L160 181Q160 146 177.5 119Q195 92 222 77Q249 62 276 62L276 62Q310 62 328 77Q346 92 346 117L346 117Q346 141 332 155.5Q318 170 300 170L300 170Q289 170 281.5 165Q274 160 268 154L268 154Q261 148 254.5 142.5Q248 137 241 137L241 137Q229 137 217.5 150Q206 163 206 189L206 189Q206 218 231.5 239Q257 260 296 260L296 260Q320 260 342 247.5Q364 235 379 206Q394 177 394 129L394 129L394-74Q394-82 391-91Q388-100 380-100L380-100Q310-100 248-117.5Q186-135 138-169.5Q90-204 62.5-254.5Q35-305 35-373L35-373Q35-473 82-533.5Q129-594 215-621Q301-648 418-648L418-648Q447-648 477.5-647Q508-646 532-644Q556-642 563-641L563-641Q571-640 575-633Q579-626 579-618L579-618Q579-610 575-598Q571-586 564-586L564-586Q560-586 527.5-594Q495-602 455-602L455-602Q448-602 442-595.5Q436-589 436-581L436-581L436 128Q436 182 416.5 219.5Q397 257 364.5 277Q332 297 291 297Z"></path></g></g><g transform="translate(251.03,198) scale(0.2759)"><path d="M39 277L39 277Q33 277 25.5 274.5Q18 272 18 266L18 266Q18 258 25 254Q32 250 41 247L41 247Q58 242 70 235Q82 228 82 209L82 209L82-288Q82-297 77.5-312Q73-327 63-340Q53-353 38-355L38-355Q33-357 30.5-360.5Q28-364 28-370L28-370Q28-376 30.5-379.5Q33-383 37-384L37-384Q73-393 105-404Q137-415 162-427L162-427Q165-427 166.5-428.5Q168-430 170-430L170-430Q173-430 175-426.5Q177-423 177-420L177-420Q177-411 174.5-392Q172-373 172-360L172-360Q172-352 173-351L173-351Q183-361 209-376.5Q235-392 269-405Q303-418 334-418L334-418Q386-418 423-390Q460-362 480-318Q500-274 500-227L500-227Q500-181 482.5-138Q465-95 433.5-60.5Q402-26 361-5.5Q320 15 272 15L272 15Q259 15 241 11.5Q223 8 205.5 1.5Q188-5 178-13L178-13Q177-13 176-4.5Q175 4 174.5 13.5Q174 23 174 27L174 27L174 206Q174 219 183 227Q192 235 204.5 239.5Q217 244 230 248L230 248Q239 251 246 254.5Q253 258 253 266L253 266Q253 272 246 274.5Q239 277 232 277L232 277Q203 277 179 274.5Q155 272 129 272L129 272Q112 272 99 273Q86 274 72.5 275.5Q59 277 39 277ZM281-21L281-21Q295-21 314-29.5Q333-38 352.5-58Q372-78 385-111Q398-144 398-193L398-193Q398-250 384.5-284Q371-318 351-335.5Q331-353 310.5-359Q290-365 276-365L276-365Q254-365 230.5-355.5Q207-346 191.5-334Q176-322 176-315L176-315Q176-297 175.5-274.5Q175-252 174.5-228.5Q174-205 174-186Q174-167 174-159L174-159Q174-125 189.5-93Q205-61 229.5-41Q254-21 281-21ZM576 3L576 3Q567 3 561.5 0Q556-3 556-9L556-9Q556-17 562.5-20.5Q569-24 579-27L579-27Q600-32 608.5-41Q617-50 617-65L617-65L617-285Q617-310 610-327.5Q603-345 580-350L580-350Q576-351 572.5-355Q569-359 569-365L569-365Q569-376 579-379L579-379Q607-387 639-401.5Q671-416 691-427L691-427Q697-431 702-433Q707-435 709-435L709-435Q716-435 716-427L716-427Q716-423 715.5-410Q715-397 714-381Q713-365 713-350L713-350Q713-346 715-346L715-346Q731-366 750.5-383Q770-400 792-410.5Q814-421 834-421L834-421Q860-421 874-410.5Q888-400 888-383L888-383Q888-372 881.5-357.5Q875-343 864.5-332.5Q854-322 842-322L842-322Q835-322 827-325.5Q819-329 810-333L810-333Q802-337 793.5-340.5Q785-344 777-344L777-344Q752-344 731-326Q710-308 710-256L710-256L710-68Q710-52 723-43Q736-34 762-26L762-26Q773-23 779-19.5Q785-16 785-9L785-9Q785 3 766 3L766 3Q736 3 714.5 0.5Q693-2 667-2L667-2Q650-2 637-1Q624 0 610 1.5Q596 3 576 3ZM1104 15L1104 15Q1050 15 1008.5-12.5Q967-40 943-89.5Q919-139 919-204L919-204Q919-263 946.5-312Q974-361 1020-390.5Q1066-420 1121-420L1121-420Q1162-420 1194.5-403.5Q1227-387 1245.5-357.5Q1264-328 1264-290L1264-290Q1264-257 1233-257L1233-257L1026-257Q1012-257 1006-249Q1000-241 1000-220L1000-220Q1000-176 1020-139.5Q1040-103 1073-81Q1106-59 1146-59L1146-59Q1176-59 1200.5-70.5Q1225-82 1246-103L1246-103Q1249-107 1251.5-109Q1254-111 1257-111L1257-111Q1266-111 1266-100L1266-100Q1266-84 1252-62L1252-62Q1238-41 1216.5-23.5Q1195-6 1166.5 4.5Q1138 15 1104 15ZM1027-291L1027-291L1107-291Q1133-291 1148-292Q1163-293 1176-296L1176-296Q1181-298 1183-304.5Q1185-311 1185-321L1185-321Q1185-349 1162-368.5Q1139-388 1107-388L1107-388Q1085-388 1063.5-375Q1042-362 1028-342.5Q1014-323 1015-303L1015-303Q1015-291 1027-291ZM1444 14L1444 14Q1412 14 1383.5 5Q1355-4 1334-21L1334-21Q1327-34 1324-62Q1321-90 1321-113L1321-113Q1321-123 1336-123L1336-123Q1342-123 1346.5-120.5Q1351-118 1352-114L1352-114Q1367-67 1394-43Q1421-19 1453-19L1453-19Q1481-19 1499-37.5Q1517-56 1517-82L1517-82Q1517-109 1498-127.5Q1479-146 1440-170L1440-170Q1408-189 1385-207.5Q1362-226 1350-248.5Q1338-271 1338-300L1338-300Q1338-335 1355.5-362Q1373-389 1405-405Q1437-421 1482-421L1482-421Q1514-421 1536.5-414.5Q1559-408 1569-401L1569-401Q1577-390 1582.5-365Q1588-340 1588-315L1588-315Q1588-307 1575-307L1575-307Q1569-307 1562.5-310Q1556-313 1554-318L1554-318Q1541-353 1521.5-371Q1502-389 1474-389L1474-389Q1450-389 1431-374.5Q1412-360 1412-333L1412-333Q1412-310 1428.5-292.5Q1445-275 1481-255L1481-255Q1541-222 1569.5-192.5Q1598-163 1598-114L1598-114Q1598-56 1556.5-21Q1515 14 1444 14ZM1780 14L1780 14Q1748 14 1719.5 5Q1691-4 1670-21L1670-21Q1663-34 1660-62Q1657-90 1657-113L1657-113Q1657-123 1672-123L1672-123Q1678-123 1682.5-120.5Q1687-118 1688-114L1688-114Q1703-67 1730-43Q1757-19 1789-19L1789-19Q1817-19 1835-37.5Q1853-56 1853-82L1853-82Q1853-109 1834-127.5Q1815-146 1776-170L1776-170Q1744-189 1721-207.5Q1698-226 1686-248.5Q1674-271 1674-300L1674-300Q1674-335 1691.5-362Q1709-389 1741-405Q1773-421 1818-421L1818-421Q1850-421 1872.5-414.5Q1895-408 1905-401L1905-401Q1913-390 1918.5-365Q1924-340 1924-315L1924-315Q1924-307 1911-307L1911-307Q1905-307 1898.5-310Q1892-313 1890-318L1890-318Q1877-353 1857.5-371Q1838-389 1810-389L1810-389Q1786-389 1767-374.5Q1748-360 1748-333L1748-333Q1748-310 1764.5-292.5Q1781-275 1817-255L1817-255Q1877-222 1905.5-192.5Q1934-163 1934-114L1934-114Q1934-56 1892.5-21Q1851 14 1780 14Z" fill="#fbf8f2"></path><path d="M2082 20L2082 20Q2056 20 2037 1Q2018-18 2018-44L2018-44Q2018-72 2037-90.5Q2056-109 2082-109L2082-109Q2109-109 2127.5-90.5Q2146-72 2146-44L2146-44Q2146-18 2127.5 1Q2109 20 2082 20Z" fill="#e0503f"></path></g></svg>