<svg xmlns="http://www.w3.org/2000/svg" viewBox="0 0 512 512" width="512" height="512"><rect width="512" height="512" rx="102.40" fill="#a53326"></rect><g transform="translate(158.70,305.48) scale(0.3170)" fill="#fbf8f2"><path d="M291 297L291 297Q256 297 226 282.5Q196 268 178 242Q160 216 160 181L160 181Q160 146 177.5 119Q195 92 222 77Q249 62 276 62L276 62Q310 62 328 77Q346 92 346 117L346 117Q346 141 332 155.5Q318 170 300 170L300 170Q289 170 281.5 165Q274 160 268 154L268 154Q261 148 254.5 142.5Q248 137 241 137L241 137Q229 137 217.5 150Q206 163 206 189L206 189Q206 218 231.5 239Q257 260 296 260L296 260Q320 260 342 247.5Q364 235 379 206Q394 177 394 129L394 129L394-74Q394-82 391-91Q388-100 380-100L380-100Q310-100 248-117.5Q186-135 138-169.5Q90-204 62.5-254.5Q35-305 35-373L35-373Q35-473 82-533.5Q129-594 215-621Q301-648 418-648L418-648Q447-648 477.5-647Q508-646 532-644Q556-642 563-641L563-641Q571-640 575-633Q579-626 579-618L579-618Q579-610 575-598Q571-586 564-586L564-586Q560-586 527.5-594Q495-602 455-602L455-602Q448-602 442-595.5Q436-589 436-581L436-581L436 128Q436 182 416.5 219.5Q397 257 364.5 277Q332 297 291 297Z"></path></g></svg>